<?xml version="1.0" encoding="utf-8"?>
<!-- Generator: Adobe Illustrator 28.1.0, SVG Export Plug-In . SVG Version: 6.00 Build 0)  -->
<svg version="1.1"
	 id="svg23" xmlns:cc="http://creativecommons.org/ns#" xmlns:dc="http://purl.org/dc/elements/1.1/" xmlns:sodipodi="http://sodipodi.sourceforge.net/DTD/sodipodi-0.dtd" xmlns:svg="http://www.w3.org/2000/svg" xmlns:inkscape="http://www.inkscape.org/namespaces/inkscape" xmlns:rdf="http://www.w3.org/1999/02/22-rdf-syntax-ns#" inkscape:version="1.0.1 (3bc2e813f5, 2020-09-07)" sodipodi:docname="Cal-lutheran_logo_from_NCAA.svg"
	 xmlns="http://www.w3.org/2000/svg" xmlns:xlink="http://www.w3.org/1999/xlink" x="0px" y="0px" viewBox="0 0 130.6 199.6"
	 style="enable-background:new 0 0 130.6 199.6;" xml:space="preserve">
<style type="text/css">
	.st0{fill:#FFFFFF;}
	.st1{fill:#71093A;}
</style>
<sodipodi:namedview  bordercolor="#666666" borderopacity="1" gridtolerance="10" guidetolerance="10" id="namedview25" inkscape:current-layer="svg23" inkscape:cx="66" inkscape:cy="100" inkscape:pageopacity="0" inkscape:pageshadow="2" inkscape:window-height="480" inkscape:window-maximized="0" inkscape:window-width="747" inkscape:window-x="0" inkscape:window-y="27" inkscape:zoom="1.2704305" objecttolerance="10" pagecolor="#ffffff" showgrid="false">
	</sodipodi:namedview>
<g id="g21" transform="translate(-34)">
	<g id="cal-lutheran_BGL">
		<g id="cal-lutheran" transform="translate(34)">
			<path id="Shape" class="st0" d="M65.3,0C71.2,5.8,77,11.7,82.8,17.5c-3.3,3.3-6.6,6.6-9.9,9.9c1.2,2.5,3,4.9,4.6,7.2
				c2.1,0.9,4.8,1,7.1,0.8c3.3-0.5,6.6-1.4,9.5-3.2c2.5-1.5,5.2-3.5,6.6-6.1c0.9-2.2,3.8-2.9,5.7-4.2c0,8.2,0,16.4,0,24.6
				c8.1,0.1,16.3,0,24.4,0.1c0,28.7,0,57.3,0,86c-0.1,3.2,0.1,6.4-0.3,9.6c-0.7,5.1-2.3,10.2-4.9,14.7c-1.1,2.1-2.1,4.2-3.6,6.1
				c-2,2.8-3.9,5.7-6.5,8c-2.5,2.3-5,4.6-7.6,6.9c-2,1.5-4.1,2.8-6.2,4.3c-3.6,2.5-7.3,5.2-11.2,7.2c-2.5,1.3-5.1,2.5-7.6,3.7
				c-5.6,2.7-11.6,4.6-17.5,6.6c-3.4-1.3-6.9-2.1-10.2-3.5c-6-2.5-12-5.4-17.7-8.6c-8.1-4.3-15.7-9.8-22.1-16.4
				c-3.7-3.4-6.2-8.1-9.1-12.3c-1.8-2.5-2.6-5.3-3.7-8.1c-1.4-3.2-2.1-6.7-2.2-10.2C0.2,109.2,0,77.9,0,46.6
				c8.1-0.1,16.2-0.1,24.3-0.1c0-8.3-0.1-16.6-0.1-24.9c1.4,0.9,2.8,1.7,4.2,2.6c1.1,0.7,1.5,2,2.2,3c2.5,3.2,5.8,5.7,9.8,6.9
				c4,1.4,8.3,1.8,12.4,0.8c1.8-2.4,3.4-5,4.8-7.6c-3.2-3.2-6.5-6.4-9.8-9.6C53.7,11.8,59.5,5.9,65.3,0z"/>
			<path id="path7" class="st1" d="M65.2,3.8c4.6,4.5,9.2,9.1,13.8,13.7c-3.2,3.2-6.4,6.3-9.6,9.5c2.1,3.3,4.2,6.6,6.2,9.9
				c2.7,0.9,5.6,1.3,8.4,1c5.6-0.4,11.3-2.6,15.4-6.4c1.7-1.5,2.9-3.3,4.1-5.3c0,7.6,0,15.3,0,22.9c8.1,0,16.3,0,24.4,0
				c0,28.5,0,57,0,85.6c0.1,3.8-0.3,7.6-1.2,11.3c-1.8,7.8-6.1,14.9-11.4,21c-6.3,7.1-13.8,12.6-22,17.5c-8.5,4.9-17.6,9-27,12
				c-1.4,0.6-2.5,0-3.9-0.4c-12.3-4.2-24.1-9.9-34.7-17.4c-8.7-6.3-16.7-14.4-21.3-24.2c-2.7-5.6-4.1-11.7-4.2-17.9
				c0-29.1,0-58.2,0-87.3c8.1,0,16.3,0,24.4,0c0-7.6,0-15.3,0-22.9c1.2,1.9,2.4,3.7,4.1,5.3c4.6,4.2,11.1,6.3,17.2,6.4
				c2.1-0.1,4.6-0.2,6.6-1.2c2.2-3.2,4.2-6.6,6.3-9.8c-3.2-3.2-6.4-6.4-9.6-9.6C56.1,12.9,60.6,8.3,65.2,3.8z"/>
			<path id="path9" class="st0" d="M65.2,12.6c1.7,1.6,3.2,3.3,4.9,4.9c-1.6,1.7-3.3,3.3-4.9,4.9c-1.7-1.6-3.3-3.3-4.9-4.9
				C62,15.9,63.5,14.2,65.2,12.6z"/>
			<path id="path11" class="st0" d="M65.3,35.6c0,4.8,0,9.6,0,14.4c-8.2,0-16.5,0-24.8,0c6.2-1.8,12.3-3.7,18.5-5.4
				C61.1,41.6,63.2,38.6,65.3,35.6z"/>
			<path id="path13" class="st0" d="M7.9,55.3c38.2,0,76.5,0,114.8,0c0,27.4,0,54.8,0,82.1c0,4-0.8,8.1-2.1,11.8
				c-3.3,9.1-9.6,16.3-17,22.4C93,180.2,80.4,186.5,67.7,191c-1.2,0.4-2.2,1-3.5,0.4c-3.2-1.1-6.4-2.3-9.5-3.6
				c-11.6-4.9-23.1-11.6-32.2-20.3c-6.6-6.5-11.9-14.1-13.8-23.3c-1.1-4.6-0.7-9.1-0.7-13.8C7.9,105.4,7.9,80.3,7.9,55.3z"/>
			<path id="path15" class="st1" d="M20.4,67.1c1.4-0.1,2.8,0,4.1,0c12.8,0,25.6,0,38.5,0c0,12.9,0,25.7,0,38.6
				c-4.6-4.2-9.1-8.4-13.7-12.6c0-4.1,0-8.2,0-12.3c-5.1,0-10.2,0-15.2,0c0,18.5,0,36.9,0,55.4c0,3.2,1.7,6.3,3.6,8.8
				c3.2,4,7.4,7.2,11.6,10.1c0-6.9,0-13.7,0-20.6c4.3,3.9,8.6,7.9,12.9,11.9c0.6,0.6,0.8,0.8,0.8,1.7c0,9.8,0,19.6,0,29.3
				c-10.8-4.3-21.6-9.9-30.3-17.7c-5.3-4.8-10-10.7-11.7-17.7c-0.9-3.2-0.6-6.3-0.6-9.7c0-20.3,0-40.6,0-60.8
				C20.4,69.9,20.3,68.5,20.4,67.1z"/>
			<path id="path17" class="st1" d="M67.8,67.1c6.4,0,12.7,0,19.1,0c-1.8,2.2-3.6,4.3-5.4,6.5c0,27,0,54.1,0,81.2
				c2.7-1.8,5.4-3.8,7.8-6.1c3.6-3.4,6.8-7.2,7.3-12.3c3.7,3.5,7.5,7,11.3,10.5c-3.3,6.7-8.5,11.8-14.3,16.2
				c-7.8,5.9-16.8,10.5-25.8,14C67.8,140.4,67.8,103.8,67.8,67.1z"/>
		</g>
	</g>
</g>
</svg>
