<?xml version="1.0" encoding="utf-8"?>
<!-- Generator: Adobe Illustrator 28.1.0, SVG Export Plug-In . SVG Version: 6.00 Build 0)  -->
<svg version="1.1"
	 id="svg23" xmlns:cc="http://creativecommons.org/ns#" xmlns:dc="http://purl.org/dc/elements/1.1/" xmlns:sodipodi="http://sodipodi.sourceforge.net/DTD/sodipodi-0.dtd" xmlns:svg="http://www.w3.org/2000/svg" xmlns:inkscape="http://www.inkscape.org/namespaces/inkscape" xmlns:rdf="http://www.w3.org/1999/02/22-rdf-syntax-ns#" inkscape:version="1.0.1 (3bc2e813f5, 2020-09-07)" sodipodi:docname="Cal-lutheran_logo_from_NCAA.svg"
	 xmlns="http://www.w3.org/2000/svg" xmlns:xlink="http://www.w3.org/1999/xlink" x="0px" y="0px" viewBox="0 0 231.6 232"
	 style="enable-background:new 0 0 231.6 232;" xml:space="preserve">
<style type="text/css">
	.st0{fill:#71093A;}
</style>
<sodipodi:namedview  bordercolor="#666666" borderopacity="1" gridtolerance="10" guidetolerance="10" id="namedview25" inkscape:current-layer="svg23" inkscape:cx="66" inkscape:cy="100" inkscape:pageopacity="0" inkscape:pageshadow="2" inkscape:window-height="480" inkscape:window-maximized="0" inkscape:window-width="747" inkscape:window-x="0" inkscape:window-y="27" inkscape:zoom="1.2704305" objecttolerance="10" pagecolor="#ffffff" showgrid="false">
	</sodipodi:namedview>
<g>
	<path class="st0" d="M145.7,4.6c45.5,11.8,79.8,51.3,85.1,97.9c7,61.2-33.2,116.5-94.2,127.4c-42.1,7.5-78.1-5.7-107.3-37.1
		c-0.3-0.3-0.4-0.6-1-1.4c5.9-5.1,11.9-10.2,18.2-15.6c19.6,21.6,43.9,32.7,73.1,31.7c22.1-0.8,41.5-8.9,57.8-23.8
		c31.8-29.1,39.1-75.6,17.8-112.7c-21.1-36.9-65-54.4-105.5-42.2C55.8,39,24.2,76.3,26,104.1c7.2,0,14.5,0.1,21.7-0.1
		c0.8,0,2-2,2.4-3.2c4.9-18.9,15.7-33.4,32.6-43.2c10.1-5.8,21-8.8,33-8.6c0,8,0,15.9,0,23.7c-31.9,2.3-44.5,28.4-43,46.4
		c2,23.4,20.3,40.4,42.9,40.7c19.2,0.3,37.6-13.5,41.2-31.3c-6.4,0-12.7,0-19.1,0c-6.2,0-12.4,0-18.9,0c0-8.1,0-15.9,0-24
		c21.6,0,43,0,64.5,0c4.8,42.2-21.7,71.4-53.7,78.2c-35.1,7.4-70-14.5-79-49.8c-0.8-3.2-1.9-4.4-5.3-4.4c-15.1,0.1-30.1,0-45.2-0.1
		c0-5.5-0.1-19.2,0-20.6C3.3,59.1,39.7,19.5,86.3,4.6C115.8-4.8,138.8,2.8,145.7,4.6z"/>
</g>
</svg>
