<?xml version="1.0" encoding="utf-8"?>
<!-- Generator: Adobe Illustrator 28.1.0, SVG Export Plug-In . SVG Version: 6.00 Build 0)  -->
<svg version="1.1" id="Layer_1" xmlns="http://www.w3.org/2000/svg" xmlns:xlink="http://www.w3.org/1999/xlink" x="0px" y="0px"
	 viewBox="0 0 789.3 789" style="enable-background:new 0 0 789.3 789;" xml:space="preserve">
<style type="text/css">
	.st0{fill:#71093A;}
	.st1{fill:#FFFFFF;}
</style>
<path class="st0" d="M789.2,111.9c0-6.6-0.5-13.2-1.5-19.8c-7.4-51.2-53.9-92-105.6-92C490.8,0,299.5,0,108.1,0
	C87.2-0.1,66.7,6.1,49.5,18C16.9,40.3,0.1,71.3,0.1,110.9C0,205.5,0,300.1,0,394.8c0.1,94.5,0.1,189,0,283.5
	c0,24.4,6.8,46.7,21.4,66.1c22.4,29.7,52.6,44.6,89.8,44.6h561.7c3,0,6,0.1,9,0c14.5-0.3,28.7-3,41.8-9.3
	c42.5-20.4,65.3-54.3,65.4-101.6C789.3,489.3,789.3,300.6,789.2,111.9z M717.8,724.6c-10.4,8.9-22.7,13.4-36.3,14
	c-2.6,0.1-5.2,0-7.9,0c-187.5,0-375,0-562.4,0c-22.6,0-40.2-9.7-52.3-28.8c-5.4-8.7-8.3-18.6-8.4-28.8c-0.1-1.6-0.1-3.2-0.1-4.9
	c0-188.1,0-376.2,0-564.3c0-22.3,9-39.8,27.6-52.2c10.2-6.7,21.6-9.3,33.8-9.3h282.7c94.3,0,188.7,0,283.1,0
	c18.6,0,34.2,6.4,46.6,20.3c8.8,9.8,13.9,22.2,14.6,35.3c0.2,3.6,0.2,7.2,0.2,10.9c-0.1,186.3,0,372.7,0.1,559.1
	C739,695.4,732.7,711.8,717.8,724.6z"/>
<path class="st1" d="M738.9,116.8c0-3.6,0.1-7.3-0.2-10.9c-0.7-13.1-5.9-25.6-14.6-35.3c-12.4-13.9-28-20.3-46.6-20.3
	c-94.4,0.1-188.7,0.1-283.1,0H111.8c-12.2,0-23.6,2.6-33.8,9.3C59.3,72,50.3,89.5,50.3,111.8c0,188.1,0,376.2,0,564.3
	c0,1.6,0,3.2,0.1,4.9c0.1,10.2,3,20.1,8.4,28.8c12.1,19.2,29.7,28.8,52.3,28.8c187.5,0,375,0,562.4,0c2.6,0,5.2,0.1,7.9,0
	c13.7-0.6,25.9-5.1,36.3-14c14.9-12.8,21.2-29.2,21.2-48.8C738.9,489.5,738.9,303.1,738.9,116.8z M360.4,204.3h219.9
	c35.5,0,62.6,27.1,62.6,62.8c0,68.9,0.1,137.8,0.1,206.6c0,3.3-0.8,4.2-4.2,4.2c-16.4-0.2-32.8-0.1-49.1-0.1h-4.2v-4.4
	c0-64.7,0-129.5,0-194.2c0-8.5-2-15.9-9.3-20.9c-2.5-1.7-5.6-3.5-8.5-3.6c-12.3-0.4-24.7-0.2-37.5-0.2v223h-57.4V254.4h-55.4v223.2
	h-57.1V204.3z M315.9,496.2c-2.3,40-23.5,69.2-62.7,81.5c-15.5,4.9-31.5,6.7-47.7,6.8h-22.9c-1.8,0-3.1-0.1-3.1-2.5
	c0.1-15.5,0.1-31,0.1-46.5c0.1-0.4,0.3-0.9,0.5-1.3c7.2,0,14.5,0.4,21.7-0.1c8.3-0.5,16.8-1,24.8-3c20.9-5.3,31.1-18.5,32.1-40.1
	c0.2-4.2,0-8.4,0-13.2h-4.3c-15.6,0-31.2,0-46.9-0.1c-33.7-0.2-61-27-61.2-60.7c-0.3-50.6-0.3-101.2,0-151.9
	c0.2-34,27.7-60.8,61.8-60.9c34.6-0.1,69.2,0,103.9-0.1c3.4,0,4.4,0.8,4.4,4.3c-0.1,79.4-0.1,158.8-0.1,238.1
	C316.4,463.2,316.8,479.7,315.9,496.2z M639.2,584.6c-91.8-0.1-183.7-0.1-275.5-0.1c-1,0-2-0.1-3.2-0.2v-49.9h282.2
	c0.1,1.1,0.3,2.2,0.3,3.3c0,14.4-0.1,28.7,0.1,43.1C643,583.8,642.1,584.6,639.2,584.6z"/>
<path class="st0" d="M643,473.7c0,3.3-0.8,4.2-4.2,4.2c-16.4-0.2-32.8-0.1-49.1-0.1h-4.2v-4.4c0-64.7,0-129.5,0-194.2
	c0-8.5-2-15.9-9.3-20.9c-2.5-1.7-5.6-3.5-8.5-3.6c-12.3-0.4-24.7-0.2-37.5-0.2v223h-57.4V254.4h-55.4v223.2h-57.1V204.3h219.9
	c35.5,0,62.6,27.1,62.6,62.8C643,336,643,404.8,643,473.7z"/>
<path class="st0" d="M316.4,446.7c0-79.4,0-158.7,0.1-238.1c0-3.5-1-4.3-4.4-4.3c-34.6,0.1-69.2,0.1-103.9,0.1
	c-34.1,0.1-61.6,26.9-61.8,60.9c-0.3,50.6-0.3,101.2,0,151.9c0.2,33.7,27.5,60.4,61.2,60.7c15.6,0.1,31.2,0.1,46.9,0.1h4.3
	c0,4.7,0.2,9,0,13.2c-1,21.6-11.2,34.8-32.1,40.1c-8,2-16.5,2.5-24.8,3c-7.2,0.5-14.5,0.1-21.7,0.1c-0.2,0.4-0.4,0.8-0.5,1.3
	c0,15.5,0,31-0.1,46.5c0,2.5,1.4,2.5,3.1,2.5h22.9c16.2-0.1,32.2-1.9,47.7-6.8c39.2-12.3,60.4-41.5,62.7-81.5
	C316.8,479.7,316.4,463.2,316.4,446.7z M256.6,427.8c-10.8,0-21.5,0.2-32.2,0c-11.5-0.2-20.5-9.9-20.6-22
	c-0.1-23.1-0.1-46.2-0.1-69.4v-58.9c0-14.4,9-23.3,23.4-23.4h28.1c1.1,0,2.2,0.1,3.6,0.2l0,173C258.1,427.6,257.3,427.8,256.6,427.8
	z"/>
<path class="st1" d="M258.8,427.4c-0.7,0.2-1.5,0.3-2.2,0.4c-10.8,0-21.5,0.2-32.2,0c-11.5-0.2-20.5-9.9-20.6-22
	c-0.1-23.1-0.1-46.2-0.1-69.4v-58.9c0-14.4,9-23.3,23.4-23.4h28.1c1.1,0,2.2,0.1,3.6,0.2L258.8,427.4z"/>
<path class="st0" d="M643,580.8c0,3-0.9,3.8-3.8,3.8c-91.8-0.1-183.7-0.1-275.5-0.1c-1,0-2-0.1-3.2-0.2v-49.9h282.2
	c0.1,1.1,0.3,2.2,0.3,3.3C642.9,552.1,642.8,566.4,643,580.8z"/>
</svg>
